<svg xmlns="http://www.w3.org/2000/svg" xmlns:xlink="http://www.w3.org/1999/xlink"><symbol id="Burger-720" viewBox="0 0 36 27">
<rect width="36" height="3" transform="matrix(-1 0 0 1 36 0)" fill="white"/>
<path d="M28 12H0V15H28V12Z" fill="white"/>
<path d="M24 24H0V27H24V24Z" fill="white"/>
</symbol><symbol id="Burger-mobile" viewBox="0 0 25 18">
<rect width="25" height="2" transform="matrix(-1 0 0 1 25 0)" fill="white"/>
<path d="M16 8H9.53674e-07V10H16V8Z" fill="white"/>
<path d="M10 16H0V18H10V16Z" fill="white"/>
</symbol><symbol id="fb" viewBox="0 0 50 50">
<path d="M25 0C11.25 0 0 11.2475 0 25.1003C0 37.6254 9.14999 48.0212 21.1 49.8999V32.3648H14.75V25.1003H21.1V19.5642C21.1 13.2766 24.825 9.81967 30.55 9.81967C33.275 9.81967 36.125 10.2956 36.125 10.2956V16.483H32.975C29.875 16.483 28.9 18.4119 28.9 20.3908V25.1003H35.85L34.725 32.3648H28.9V49.8999C34.7911 48.9677 40.1555 45.9558 44.0248 41.4081C47.8941 36.8603 50.0133 31.0763 49.9999 25.1003C49.9999 11.2475 38.75 0 25 0Z" fill="#CACACA"/>
</symbol></svg>